<svg xmlns="http://www.w3.org/2000/svg" xmlns:xlink="http://www.w3.org/1999/xlink" viewBox="0 0 770.55 772.58"><defs><style>.cls-1{isolation:isolate;}.cls-2{fill:#6d5d4d;}.cls-3{fill:url(#linear-gradient);}.cls-4{fill:#fff;}.cls-5{fill:#d6d6d6;}.cls-6{fill:#adadad;}.cls-7{fill:#504e4b;}.cls-8{fill:#4d4a48;}.cls-9{fill:#aba8a5;}.cls-10{fill:#86807b;}.cls-11{fill:#d2d2cf;}.cls-12{fill:#7b746d;}.cls-13{fill:#7a736e;}.cls-14{fill:#b0adaa;}.cls-15{fill:#a9a6a4;}.cls-16{fill:#90541a;}.cls-17{fill:#c17229;}.cls-18{fill:url(#linear-gradient-2);}.cls-19{fill:url(#linear-gradient-3);}.cls-20{fill:#191919;}.cls-21{fill:#4b4a48;}.cls-22{fill:#b6b5b3;}.cls-23{fill:#999491;}.cls-24{fill:#cecdcd;}.cls-25{fill:#aba9a8;}.cls-26{fill:#a9a6a3;}.cls-27{fill:#e6e6e4;}.cls-28{fill:#b0afac;}.cls-29{fill:#cbcac7;}.cls-30{fill:#585552;}.cls-31{fill:#e6cab9;}.cls-32{fill:#e6cbbb;}.cls-33{fill:#f5eee8;}.cls-34{fill:#e3cbbb;}.cls-35{fill:#e5cbba;}.cls-36{fill:#f4e7dd;}.cls-37{fill:#e6ccbb;}.cls-38,.cls-40{fill:#7b746e;}.cls-38{stroke:#3d3d3d;stroke-miterlimit:10;stroke-width:2.5px;}.cls-39{fill:#a5a2a0;}.cls-41{fill:#595450;}.cls-42{fill:#bab4af;}.cls-43{fill:#e6cab8;}.cls-44{fill:#f5efea;}.cls-45{fill:#e7ccba;}.cls-46{fill:#f4ece5;}.cls-47{fill:#36281c;}.cls-48{fill:#e6cbba;}.cls-49{fill:#5a3e25;}.cls-50{fill:#faf8f5;}.cls-51{fill:#f9f6f2;}.cls-52{fill:#e4cab8;}.cls-53{fill:#f9f4f0;}.cls-54{fill:#e3cdbe;}.cls-55{fill:#faf3ed;}.cls-56{fill:#e3caba;}.cls-57{fill:#e6cdbd;}.cls-58{fill:#e7d6c9;}.cls-59{fill:#e6d8cd;}.cls-60{fill:#e8ddd3;}.cls-61{fill:#ede9e1;}.cls-62{fill:#e6c9b7;}.cls-63{fill:#d2b39e;}.cls-64{fill:#d1b19d;}.cls-65{fill:#f7f1ed;}.cls-66{fill:#f8f4f0;}.cls-67{fill:#f9f5f1;}.cls-68{fill:#f8f5f2;}.cls-69{fill:#e5cbb9;}.cls-70{fill:#faf6f2;}.cls-71{fill:#e6cbb9;}.cls-72{fill:#4c4b49;}.cls-73{fill:#929497;mix-blend-mode:multiply;}.cls-74{fill:url(#linear-gradient-4);}</style><linearGradient id="linear-gradient" x1="115.49" y1="216.05" x2="517.85" y2="216.05" gradientUnits="userSpaceOnUse"><stop offset="0" stop-color="#e7cab8"/><stop offset="1" stop-color="#f7f3f0"/></linearGradient><linearGradient id="linear-gradient-2" x1="133.46" y1="501.08" x2="280.3" y2="248.63" gradientUnits="userSpaceOnUse"><stop offset="0" stop-color="#fff"/><stop offset="0.23" stop-color="#fefcfb"/><stop offset="0.46" stop-color="#f9f3ef"/><stop offset="0.7" stop-color="#f2e3da"/><stop offset="0.94" stop-color="#e9cebd"/><stop offset="0.98" stop-color="#e7cab8"/></linearGradient><linearGradient id="linear-gradient-3" x1="414.51" y1="418.08" x2="416.59" y2="418.08" gradientUnits="userSpaceOnUse"><stop offset="0" stop-color="#fff"/><stop offset="1" stop-color="#e7cab8"/></linearGradient><linearGradient id="linear-gradient-4" x1="102.67" y1="607.99" x2="133.28" y2="607.99" xlink:href="#linear-gradient"/></defs><g class="cls-1"><g id="Layer_2" data-name="Layer 2"><g id="OBJECTS"><path class="cls-2" d="M769.32,187.83c-8.76-22.24-18-44.27-27-66.42-2.5-6.21-6.43-6.71-11.92-4.31-19.32,8.49-38.57,17.07-58,25.18-9.3,3.87-14.86,10.33-18,19.72-4,11.79-8.67,23.34-12.88,35q-36.84,102.54-73.67,205.14c-3.8,10.64-7.83,21.21-12.07,32.67-15.88-6-30-11.3-44-16.57-3.62,9.11-7.37,17.28-10.11,25.8-2.28,7-5.49,11.89-14.6,10.73,0,9.55.62,18.32-.32,26.93-.34,3.15-3.9,7.42-6.89,8.42s-8.74-.31-10.52-2.68c-16.59-22-39.28-36.78-61.87-53.13,8.18-1.66,15.73-3.34,23.34-4.71,13.39-2.44,26.9-4.15,40.16-7.15,9.86-2.22,15-9.61,14.69-19.78-.28-11.67-1.18-23.31-1.81-35.19,14.85,6,30.55-4.22,28.33-20.88-.62-4.77.53-9.89,1.41-14.75,5.14-28.12,11.85-56,15.35-84.31a292,292,0,0,0-5.74-105.92c-7.46-30.52-19.13-59.13-41.5-82.21C442.75,19.29,393.39,4.19,339.51.7c-29.33-1.91-58.53-.1-87,7.77-33.85,9.39-66.05,22.08-91.13,48-15.2,15.73-26.12,34.07-35.69,53.85-9.8,20.22-16.35,41.44-18.54,63-3,28.92-3.09,58.22,1,87.48,2.46,17.63,9.8,32.54,18.1,47.33,8.48,15.1,18.5,29.33,27,44.43,11.2,19.94,21.78,40.25,32.14,60.62,2.06,4.06,2,9.24,3.15,15.23L144,421.3c-.78,1.13-1.56,2.22-2.31,3.31,6.06,5.18,11.89,10.67,18.22,15.51,7.49,5.71,6.06,11.26.6,17.06-4.9,5.25-10.18,10.18-14.82,15.6-5.12,6-9.68,12.36-15.35,19.72,11.63,2.31,20.93,4.18,32.16,6.43-17.66,33.82-12.63,68.83-7,103.58-16.16,3-27.42,16.6-23.33,32.08,1.56,6,1.9,12.32,3.49,18.34,2.78,10.49,9.27,21.28,19.1,22.28a112.07,112.07,0,0,0,44.17-4.77c6.71-2.12,10.89-3.59,17.23-.56,9.23,4.39,18.53,2.55,26.33-3.65,6.77-5.4,2.59-12.7,1.72-19.26a28.42,28.42,0,0,0-.91-3.49q2,1.78,4,3.62c3.93-6,8.08-11.86,11.7-18,3.21-5.53,3.65-10.18-2.38-15.35-14.94-12.86-30.42-24-52.79-26.24,0-15.1.47-30-.18-44.9-.35-7.68,1.28-13.42,8.83-17.25,6.7,5.39,11.13,2.9,14.79-4.53,4-8.2,8.92-15.94,14.5-25.74,1,4.31,1.59,6,1.78,7.77.94,9.77-1.15,20,5.4,28.86.65.87-.75,3.46-1.5,5.15-1,2.24-3.15,4.37-3.15,6.52,0,12.95-2.18,26.39,6.4,37.81,4.08,5.46,9.17,10.24,12.82,16,2.28,3.52,4.52,8.7,3.62,12.35-4.18,16.91-4.15,35.26-16,49.8-1.87,2.31-2.74,5.61-3.55,8.58-5.09,18.53-10.52,37-14.76,55.72-1.44,6.21-4.4,7.89-9.73,8.92-12.55,2.44-16.35,13.76-8.4,23.75,5.93,7.49,13.89,9.86,22.9,10.82,14.48,1.56,28.89,4.37,43.4,5.18,14.17.78,28.46.1,42.62-.81,2.72-.19,6.83-4.24,7.18-6.92.31-2.34-3.4-5.22-5.49-7.87,0,0,0-.06-.07-.06s-.09-.09-.12-.16l-.28-.09c-3.84-2.21-7.52-5.15-11.67-6.27-6.83-1.87-14.16-1.93-21.09-3.62-11.08-2.65-13.32-8.24-8.64-18.38a196.22,196.22,0,0,0,9.08-22.4c3-9.45,3.33-20.22,8.08-28.58,11.2-19.9,16.63-41.27,20.46-63.33.41-2.19,1.81-4.22,2.75-6.31.84-.06,1.65-.15,2.5-.21,3.65,13.29,7.58,26.48,10.73,39.9.53,2.34-2,5.65-3.62,8.24-4.56,7.36-3.12,13.79,1.31,20.87,4.12,6.61,7.8,13.92,9.76,21.4,1.66,6.15,1.13,13.11.38,19.57-.44,4-2.06,8.76-4.84,11.57-7.67,7.8-8.33,12.23-1.56,21,4.87,6.3,10.8,10.26,19,10,5.61-.19,11.2-.28,16.78-.53,21.78-1,43.62-1.68,65.3-3.59,4.06-.34,9.52-5,11-8.92,2.34-6-2.44-10.67-8.21-12.64-4.68-1.56-9.83-3.15-14.57-2.68-13.73,1.37-26.43-.69-38.63-8.83,7.93-18.34-4.11-40,8.83-58.37l-12.32-2.25c.13-.87.25-1.72.37-2.59h13c-5.27-4.65-9.42-8-13.22-11.79a16.26,16.26,0,0,1-4.44-6.62c-1.65-5.93-2.24-12.17-3.9-18.09-3.36-11.92-.06-20.78,8.74-29.89,13-13.51,19.63-31,15.91-49.64-2.9-14.64,7.12-24.93,8-38.54a164.48,164.48,0,0,1,20,14.45c6,4.9,11.42,10.51,17.84,14.73,9.52,6.21,18.07,12.23,20.38,24.83,1.09,6,5.61,11.73,9.73,16.63,4.34,5.18,5.24,10,3.22,16.26-2.91,9-5.12,18.28-7.93,28.58,12.17-5.4,23.12-10.27,34.42-15.26,1.43,6.11,1.62,10.36,3.36,13.79,6.09,11.89,20.32,13.29,30.71,3.68,4.08-3.74,8.45-9,13.32-9.8,12.45-2,19.78-11.88,15.54-24-1.28-3.71-2.81-7.33-4.28-11.14,23-5.11,24.65-7.51,21.31-29.95,1.62-1.28,3.37-2.56,5-4,10.21-8.67,11.14-13,5.46-25.12-.65-1.4-1.62-2.68-2.24-4.08-2.37-5.43-.5-8.27,5.24-6.71,6.83,1.84,13.45,4.59,20.06,7.17,12.79,4.93,25.52,10.05,38.22,15,5.27-13.16,9.67-24.43,14.35-35.6,2.37-5.67,1.31-9.39-4.77-11.7-7.27-2.71-14.26-6.08-21.5-8.86s-9.27-6.61-5.05-14c5.61-10,10.26-20.59,15.16-31,16.29-34.44,32.32-69,48.73-103.4,20.5-43,41.34-85.89,61.87-128.88C769.48,194,770.29,190.24,769.32,187.83ZM305.32,435c-.16,3.62-3.28,2.65-5.74,2.62-11.17-.09-22.34,0-33.51,0q-3.51-10.24-7.09-20.5c16.51-4.9,33-9.79,49.67-14.76C311.09,413.91,305.72,424.18,305.32,435Zm53.07,1.15c-4.15.25-2.37-2.93-2.19-4.52.78-7.36,1.94-14.66,3.25-24.21,7.92,10.48,16.78,17.07,25.55,23.71C377.36,439.21,367.47,435.59,358.39,436.12Z"/><path class="cls-3" d="M475.75,356c0,12.53,0,25.87,0,39.21,0,9.85-6.2,13.26-14.68,14.54-1.46-9.57-2.85-18.76-4.25-27.94l-2.18.34c0,8.07.35,16.16-.2,24.19-.17,2.44-2.47,6.39-4.39,6.8-11.73,2.49-23.64,4.16-35.23,6.07-2.14-11.52-4-21.67-5.93-31.83l-1.09.4c0,8.3.49,16.65-.29,24.87-.23,2.46-3.63,5.94-6.2,6.62-12.59,3.37-22.87-1.59-30.53-11.3-10.94-13.86-20.72-28.37-23.74-46.5-1-5.9-4.27-11.42-7.91-16.71.37,8.44.9,16.88,1.06,25.33.15,7.19-2.64,12-10.19,14.59-22.38,7.55-44.6,15.6-66.78,23.72-4.77,1.75-7.24.21-11.34-2.58a75.76,75.76,0,0,0-24.31-10.7c-12.65-3.07-25.76-4.17-38.64-6.32-2.2-.37-5.34-1.19-6.18-2.79-6.81-12.93-14.48-25.66-19.14-39.39-2.37-7,.93-15.87,1.67-23.9a10.56,10.56,0,0,0-.78-6.36c-2.29,5.66-4.57,11.32-7,17.26-.47-.11-1.66,0-2.05-.55C126.57,295.14,112.69,252.66,116,204.8c2.05-30.05,7.48-59.17,19.43-87.07,19-44.34,50.17-74.92,96.37-90.28C289.1,8.38,346.52,5.77,404.11,25.23c62.21,21,97.3,65,108.92,129.28,9.87,54.55,3.36,107.86-8.58,161.12-2.13,9.49-1.45,19.58-2.9,29.26-.47,3.1-3.09,7.56-5.64,8.32C489.63,355.06,482.82,355.11,475.75,356ZM262.56,148.88c-5,7.71-9.5,12.23-11.14,17.62C245,187.57,238.7,208.74,234,230.24c-2.47,11.43-2.68,23.85,10.38,31.22,32.36,18.25,66.31,31,104,32.42,13.3.5,22.81-4.69,29.81-15.46,14-21.54,20.27-45.45,19.59-70.85-.4-14.86-6.83-26.91-22.22-32.43-7-2.51-13.57-6.22-20.43-9.16-15.95-6.83-31.86-13.78-48-20.21-17-6.78-34.94,4.72-52-2.37a1.17,1.17,0,0,0-.92.06c-10.34,7-19.4-.37-29-2.46-2.82-.62-6.88-1.47-8.61-.05-4.84,4-8.75,9.05-13,13.69,9.48-9.53,19.81-7.17,30.38-3.32,2,.75,4.28,1,6.27,1.8,5.41,2.26,10,2.37,13.92-3C255.13,148.8,258.6,149.37,262.56,148.88ZM497.3,114.82l-2.69-.49c-4.22,8.85-12.57,17-3.66,27.32-14.14,5.7-27.05,11.73-40.51,16.06-10.54,3.39-16,10-18.26,20.17a181.84,181.84,0,0,0-.47,76c3.49,17.28,11.22,22.91,28.79,22A88.17,88.17,0,0,0,477.91,273c26.26-6.78,30.28-11.48,31-38.54.47-19,.24-38-.38-57-.31-9.68-2.62-19-10.44-26.1-6.09-5.51-6.78-15-3.42-22.54C496.51,124.56,496.47,119.5,497.3,114.82ZM424.93,263c-8.91,18.25-16.21,34.35-24.57,49.88-4.94,9.18-3.44,17.13,1.21,25.38,7.74,13.75,19.16,18.35,30.82,12.4,15.87-8.08,24.11-25.06,18.18-38.19-5.76-12.73-11.84-25.31-18-37.84C430.85,271.14,428.32,268.09,424.93,263ZM390.46,63.53l-2.41,1.85,27.42,35.89,2.33-1.77Z"/><path class="cls-4" d="M666,194.73l-8.24,5.67c-.58-15.57,9.93-32.77,22.8-38.52,14.95-6.69,29.81-13.59,44.79-20.43,8,18.61,15.73,36.24,23,54a12,12,0,0,1-.15,8.68q-59.19,127.08-118.75,254a44.68,44.68,0,0,1-2.85,4.42l-59.91-24c5.5-14.92,10.78-29.39,16.15-43.82q32.36-87,64.72-174c2.54-6.83,5.35-13,12.52-16.48,3.08-1.52,5.08-5.23,7.57-8Z"/><path class="cls-5" d="M592.34,449l-25.58-10.25c5.5-14.92,10.78-29.38,16.15-43.82q32.36-87,64.72-174c2.54-6.82,5.35-13,12.52-16.48,3.08-1.52,5.08-5.23,7.57-7.95L666,194.92l-8.24,5.66c-.58-15.57,9.93-32.76,22.8-38.52"/><path class="cls-6" d="M725.38,141.45c3.21,7.46,6.37,14.77,9.48,22,4.65,10.79,9.18,21.38,13.56,32a12,12,0,0,1-.15,8.68q-59.19,127.08-118.75,254a44.68,44.68,0,0,1-2.85,4.42l-22.88-9.17"/><path class="cls-4" d="M166.83,603.71c-8.33-23.13-10-47.15-6.34-71.63l35.33-5.24c0,7.92-.2,16.22.05,24.51.4,13.37,1.1,26.73,1.68,40.1.33,7.85-3.36,11.21-11.25,11.06C180.19,602.39,174.06,603.23,166.83,603.71Z"/><path class="cls-4" d="M397.17,442c5.62,2.12,12.38,2.92,16.64,6.6,15,12.95,29.25,26.74,43.32,40.69,1.56,1.54.77,6.32-.08,9.26-1.72,5.88-5.15,11.37-6.2,17.32-1.39,7.86-5.41,8.22-10.09,4.16-12.22-10.58-24-21.73-35.65-32.91-1.11-1.07-1-4.06-.57-6C407.46,467.41,406.61,454.58,397.17,442Z"/><path class="cls-4" d="M237,652.82c-1.53,2.44-3.45,8.76-6.14,9.1-5.94.76-13.43.28-18.19-2.86-10.15-6.69-17.75-37.06-12.45-48.16,1.65-3.45,7.25-5.76,11.51-7,6.48-1.93,12.45,1.12,14.39,7.26C230.22,624.07,233.07,637.4,237,652.82Z"/><path class="cls-4" d="M517.11,560.41c18.52,4.82,34.33,10.09,44.73,24,2.63,3.51,2.78,11.3.6,15.16-1.43,2.52-9.86,3.35-13.84,1.72-12.37-5-24.1-11.61-36.1-17.53-5.68-2.81-8.19-7.9-5.58-13.07C509.12,566.31,514.07,563.34,517.11,560.41Z"/><path class="cls-4" d="M551,504.69c10.93,3.15,22.39,4.46,33.22,7.93,2.82.9,6.38,2.91,7.38,5.33,1.86,4.54,3.42,10,2.45,14.57-.46,2.18-7.16,4.62-10.72,4.2-7.61-.88-15-3.57-22.5-5.46-5.41-1.36-10.79-3-16.28-3.84-6-1-11.51-2.67-11.25-9.81s4.31-12.16,12.1-12.9c1.85-.17,3.73,0,5.6,0C551.13,504.14,550.82,505.24,551,504.69Z"/><path class="cls-4" d="M539.57,533.61c10.7,3.19,22.07,6.16,33.1,10.11a16.49,16.49,0,0,1,8.72,7.87c1.55,3.48,1.93,8.9.19,12-1.44,2.56-7.2,4.81-10.2,4-15.86-4.19-31.56-9.11-47.1-14.39-5.14-1.75-4-12.15,1.93-15.42C529.87,535.77,534.32,535.19,539.57,533.61Z"/><path class="cls-4" d="M185.34,608.21c4.47,16,9,30.44,12.28,45.13.93,4.18-.34,11.89-2.93,13.14-4.15,2-10.89,1.3-15.31-.81-3.58-1.71-6.73-6.9-7.65-11.07a161.46,161.46,0,0,1-3.82-29.45C167.51,611.6,173.51,606.88,185.34,608.21Z"/><path class="cls-4" d="M527.82,524.88c-3.94,4.28-8.47,7.3-10.18,11.47-3.16,7.76-8.14,6.31-13.59,4.35-6.14-2.21-8-6.91-5.38-12.67,5.66-12.38,11.1-24.94,17.84-36.73,5.09-8.91,16.61-6.59,23.31,4.64C528,502.68,526.06,513.71,527.82,524.88Z"/><path class="cls-4" d="M162.72,610.78c-3.54,20-1.41,39.4,8.23,57.54-11.14,4.54-20.63,1.83-23.75-8.38a123.22,123.22,0,0,1-5.51-34.74C141.63,615.09,148.83,605.09,162.72,610.78Z"/><path class="cls-7" d="M509.51,598.58c-5.14-5.55-9.41-.16-14.1.95-3.23.76-5.16,6-9.54,2.81,2.4-8,4.21-16.36,9.27-23.4-.12-2.14,4.18-2.94,1.75-5.78-2.11-2.22-5.14-1.88-7.71-2.81-6.66-2.43-9-8.43-10.58-14.35-1.12-4.35,4.49-3.79,6.62-6s4.6-4.09,6.16-6.82q-2.86-1.86-5.75-3.7c-11.68,3-20.17-3.19-28.54-9.81a26.18,26.18,0,0,1-2.24-1.63,12.27,12.27,0,0,1-4.4-1.1L448.33,521a2.54,2.54,0,0,1,.24-.91,5.13,5.13,0,0,0-.86-.48c-1.93-.44-3.71-.35-5,1.37-.88,1.47-2.31,1.7-3.84,1.73-1.1,1.06-3,1.76-1.9,3.88,3.32,2.25,6.52,4.72,10,6.71,9.84,5.62,18.32,11.77,20.27,24.45,1.06,6.89,5.44,13.26,10.39,18.41,3.86,4,3.76,7.89,2.61,12.71-2.41,10.1-6.61,19.78-7.77,31,4.2-2,7.64-3.52,11.09-4.77,13.35-4.84,16.17-8.1,24.62-9.89C510.23,603.35,510.28,601.06,509.51,598.58Z"/><path class="cls-8" d="M450.45,526.9a12.27,12.27,0,0,0,4.4,1.1c5.26.33,10.07-2.69,15.08-3.84,4.48-1,8.36-1.66,11.92,1.81,1.81,1,3.13,3.2,5.72,2.37,3.27-1.09,3.08-3.36,2-5.92.51-4.42-3-6.5-5.48-9s-4.61-4.87-2.28-8.74,5.19-3.27,8.65-1.76c2.69,1.17,5.52,3,8.67,1,2.74-1.18,3.07-3,1.54-5.44-5.91-6.12-7.9-13.47-7.09-21.83.27-2.74-.47-5.51-1-8.26a27,27,0,0,0-1.1-7c.52-2.51,1-5,1.54-7.54-4.56-3.19-7.38-3.08-7.3,3.56.11,8.69,0,17.39-.06,26.08-.33,1.79-.17,4.82-1.07,5.18-9.73,3.87-12.78,13-17.39,21-4.24,1-5.31,6.06-9.32,7.37-2.49,1.31-5.05,2.32-7.95,1.93a2.42,2.42,0,0,0-1.43,1.21,2.54,2.54,0,0,0-.24.91Z"/><path class="cls-9" d="M491.92,466.54c-1.37-1.66-2-3.36-.37-5.22l4.05,3.37c3.3,3.12,6.26,6.72,10,9.25,5.51,3.75,6.58,7.75,2.59,13.07-4.58,2.74-6.94-.89-9.13-3.61A31,31,0,0,1,491.92,466.54Z"/><path class="cls-10" d="M496.89,573.16c-5.1,0-10.13,1.3-14.33-3.92-9.53-11.82-8.3-16.09,8.82-26.1-.7,7.49.64,14.68,5.12,20.68C499.09,567.29,497.36,570.05,496.89,573.16Z"/><path class="cls-11" d="M489.59,522.42c-2.39-2.81-5.33-5.32-7-8.5-1.4-2.69-6.59-1-5.57-4.57s3.71-7.05,5.77-10.48c1.35-2.23,3-1.48,4.6-.2,3.46,2.76,7.6,4,11.74,5.22C497.25,510.73,493.6,516.67,489.59,522.42Z"/><path class="cls-12" d="M483.8,524.65l3.77,3.69q-1,5.55-1.93,11.1c-10.49,5.48-19.05,2.88-29.92-9.09,2-4.2,5.81-2.76,9-2.68C471.3,527.84,477.78,527.82,483.8,524.65Z"/><path class="cls-13" d="M491.92,466.54c5.43,6.81,5.55,17.82,16.23,20.47-3.45,3.19-2.65,9.15-7.46,11.44-7.72-2.65-10.64-8.18-9.27-16C492.36,477.14,489.17,471.75,491.92,466.54Z"/><path class="cls-14" d="M501.06,583.31c-1.34,12-9.15,17.68-17.55,19.71,1.55-5.91,3.23-11.79,4.6-17.74.9-3.9,3.69-5.34,7-6.34C496.52,579.15,500,581.78,501.06,583.31Z"/><path class="cls-15" d="M483.8,524.65c-.81,5.48-5.27,5.29-9.08,5.48-6.32.32-12.67.17-19,.22-2.16-.54-4.14-1.36-5.27-3.46,6.56-1.71,13.34-2.87,19.63-5.3C475.77,519.39,480.08,519.75,483.8,524.65Z"/><path class="cls-4" d="M177.16,507.32c4.22,1.51,10.5,1.92,12.07,4.86s-.84,9.2-3.53,12.18c-2.23,2.47-7.47,3.18-11.29,3-4.68-.22-12.16,3.88-12.84-5.66-.76-10.72,1.31-12.83,12.37-13.18.93,0,1.86,0,2.79,0C176.88,508.11,177,507.72,177.16,507.32Z"/><path class="cls-4" d="M280.35,673.77c-5.47.69-7.57-2-7.31-8.16.43-10.35,2.64-13.12,12.38-12.82,5.59.18,10.95,1.36,11.25,8.45C297,668.65,290.41,673.72,280.35,673.77Z"/><path class="cls-4" d="M231.41,602.67c7.71,4.11,14.19,6.61,19.39,10.73,2.59,2.05,5,8.81,3.68,10.41-2.9,3.62-8,5.56-12.56,7.58-.53.23-3.41-3.09-4.06-5.13C235.65,619.27,233.94,612.13,231.41,602.67Z"/><path class="cls-16" d="M626.08,460.64a20.32,20.32,0,0,0,11.73,5.84c8.8,7.43,20.33,9,30.34,13.85,6.41,3.12,9,6.07,5.9,13.13-4.84,11.15-9.35,22.46-13.43,33.91-1.7,4.8-4.17,3.7-7.28,2.44-14.23-5.8-28.41-11.73-42.73-17.32-6.05-2.37-12-6.37-19-3.6-9.88-3.22-18.54-9.41-28.79-11.69-3.81-1.43-7.26-3.68-11.16-4.9-2.61-.89-5.16-1.94-7.74-2.95-18.28-7.6-36.14-16.19-54.68-23.2a11,11,0,0,1-5.19-5c-.91-3.18-.17-5.81,2.63-7.74,8.22-9.75,10.92-22.12,15.21-33.61,2.27-6.08,4.32-6,9.42-4,13,5.18,25.32,12.19,39.41,14.31,2.77,4.24,7.5,4.3,11.7,5.47,8.81-.35,15.73,5.09,23.6,7.64,3.44,1.39,6.78,3,10.34,4.11C606.32,451.62,616.67,455.08,626.08,460.64Z"/><path class="cls-17" d="M651,514.13c-12.18-4.85-23.56-9.29-34.86-13.91-36.16-14.78-72.23-29.74-108.47-44.3-4.84-1.95-6.16-3.94-3.73-8.41a13.45,13.45,0,0,0,.47-1.87c5.15-14.79,5.12-14.7,19.51-8.95,42.48,17,85.11,33.58,126.77,52.52,3.44,1.56,10.19.05,9.29,5.74-1,6.46-4.7,12.51-7.38,18.67C652.36,514.14,651,514.14,651,514.13Z"/><path d="M424.93,263c3.39,5.11,5.92,8.16,7.63,11.63,6.17,12.53,12.25,25.11,18,37.84,5.93,13.13-2.31,30.11-18.18,38.19-11.66,5.95-23.08,1.35-30.82-12.4-4.65-8.25-6.15-16.2-1.21-25.38C408.72,297.33,416,281.23,424.93,263Z"/><path d="M390.46,63.53l27.34,36-2.33,1.77L388.05,65.38Z"/><path class="cls-18" d="M378.17,347.78c0-1.74.07-3.46.17-5.16a211.88,211.88,0,0,1-73-55.65c-21.2-5.72-41.35-14.72-60.92-25.75C231.35,253.85,231.56,241.44,234,230c4.67-21.51,11-42.67,17.39-63.75a28.66,28.66,0,0,1,4.39-8c-.08-2.4-.18-4.79-.18-7.21,0-.64,0-1.26,0-1.89a2.33,2.33,0,0,0-1.48.72c-4,5.41-8.51,5.3-13.92,3-2-.84-4.23-1.06-6.27-1.8-10.57-3.86-20.9-6.22-30.38,3.32,4.28-4.65,8.19-9.74,13-13.7,1.73-1.41,5.79-.56,8.61,0,9.57,2.09,18.63,9.46,29,2.47a1.13,1.13,0,0,1,.92-.06c.22.09.45.14.67.23A210,210,0,0,1,307.9,12.07a296.87,296.87,0,0,0-76.14,15.14c-46.2,15.36-77.39,45.95-96.37,90.28-11.95,27.9-17.38,57-19.43,87.07-3.27,47.87,10.61,90.35,39.52,128.22.39.52,1.58.44,2.05.55,2.4-5.94,4.68-11.6,7-17.26a10.6,10.6,0,0,1,.78,6.37c-.74,8-4,16.92-1.67,23.9,4.66,13.72,12.33,26.45,19.14,39.39.84,1.59,4,2.42,6.19,2.78,12.87,2.15,26,3.26,38.62,6.32a76,76,0,0,1,24.32,10.71c4.1,2.78,6.57,4.32,11.34,2.58C285.4,400,307.62,391.94,330,384.4c7.55-2.55,10.34-7.41,10.19-14.6-.16-8.45-.69-16.89-1.06-25.33,3.64,5.29,6.93,10.81,7.91,16.71,3,18.13,12.8,32.65,23.74,46.5,7.67,9.71,17.94,14.68,30.53,11.31,2.57-.69,6-4.17,6.2-6.62,0-.18,0-.36,0-.54A84.42,84.42,0,0,1,378.17,347.78Z"/><path class="cls-19" d="M414.51,417.24c.1.57.21,1.11.31,1.68l1.77-.28C415.89,418.18,415.2,417.72,414.51,417.24Z"/><path class="cls-20" d="M497.3,114.82c-.83,4.68-.79,9.74-2.67,14-3.36,7.54-2.67,17,3.42,22.54,7.82,7.06,10.13,16.42,10.44,26.1.62,19,.85,38,.38,57-.68,27.06-4.7,31.76-31,38.54a88.17,88.17,0,0,1-17.41,2.89c-17.57.91-25.3-4.72-28.79-22a181.84,181.84,0,0,1,.47-76c2.25-10.19,7.72-16.78,18.26-20.17,13.46-4.33,26.37-10.36,40.51-16.06-8.91-10.36-.56-18.47,3.66-27.32Z"/><path class="cls-21" d="M255.45,409.91l4.09,7.9c5.11,5.88,8.07,12.5,7.11,20.49-1.09,4.36,3,6.87,3.78,10.57,1,6.28-1.6,11.67-4.15,17.09-3.78,4.17-5.14,11.07-12.53,11.23-6.63,5.63-10,13.28-13.09,21.12-7.55,7.52-9.39,18.45-15.95,26.57-3.2,4-6.19,7.71-10.65,1.42-5.32-2.34-10.75-4.87-14.05-9.74-6.09-8.95-14.66-11.66-24.85-11.77-6-.06-12.5,0-15.63-6.92-8.82.24-17.07-3.08-25.69-4.15-6.29-.79-3.53-4.45-1.35-7.05,8-9.52,16-19,24.29-28.28,9.55-10.7,9.64-10.9-.69-20.36-3.89-3.56-7.69-7.23-11.44-10.94-1.43-1.42-4.18-2.65-2.65-5.2,1.34-2.24,4-1.24,6-.89,10.1,1.71,20.16,3.71,30.27,5.41,8.23,1.38,9.91-.71,7.25-8.83-2.17-6.62-6.9-11.7-10.65-17.37-1-1.49-1.36-3.39-2-5.09q3.76-5.79,7.54-11.56c8.2,4.37,17.46,2.61,26.12,4.41,7.8,1.62,15.69,2.84,23.43,4.79,7.53,2.79,15.57,4.48,22,9.73C254.07,404.53,255.68,406.79,255.45,409.91Z"/><path class="cls-22" d="M204.79,475.47c-12.46-6-26.16-7.14-39.58-9.69,5.68-10.49,6.09-10.41,15.76-4.74,8.33,4.89,17,3.28,24.64-1.44,7-4.32,9.1-11.68,7.61-19.54-1-5.22-1.55-9.17,7.29-9.06-22.28.65-23.56-17-30.36-31.39,14,2,27.54,1.75,39.37,9.57,7.91,7.59,10.49,17,5.17,25.51-2.37,3.82-2.55,7.33-3.19,11.16-1.45,2.72-1.71,6.31-5.42,7.36a3.09,3.09,0,0,1-1.85-2.86c-1.14.42-.52,1.41-.56,2.08-.37,5.6-2.83,10.28-7.58,12.91-4.56,2.53,2.41,1.8.61,3.19C215,474.8,211.19,477.37,204.79,475.47Z"/><path class="cls-23" d="M229.35,445.41c0-1.76,3.19-3.84-.51-5.23-.81-.31-3.41-.31-1.86-1.29,14.15-8.94,6.67-19.41,2.54-29.7,7.85-1.85,11.25,3.33,14.07,9.12,1.62,3.32,2.77,6.87,4.13,10.31-.36,8.1-4,15.22-6.19,22.72-2.57,8.71-7.24,16.59-9,25.48l-1,2.58c-2.94,7.49-6.95,10.23-13.24,3-1.33-3,.33-5.41,1.73-7.73C225.45,465.65,227.72,455.64,229.35,445.41Z"/><path class="cls-24" d="M171.1,443.54l-14-13.33c.27-.64.53-1.29.79-1.93,15.21,2.91,30.58,5.17,45.54,9,6.5,1.68,4,8.43,3.1,13.42C194.81,447.79,183.38,443.6,171.1,443.54Z"/><path class="cls-25" d="M171.1,443.54c1.43-1.07,3.12-3.3,4.23-3,9.19,2.16,18.23,4.87,27.62,6.21,1.35.2,2.38,2.62,3.56,4-4.36,9.81-15.33,12.19-22.75,4.95C179.57,451.59,175.32,447.58,171.1,443.54Z"/><path class="cls-26" d="M193.67,482.77c6.59,3.87,13.1,7.86,19.77,11.58,5.85,3.25,4.13,6.94,1.53,11.42-3.74,6.43-6.22.41-8.64-.86-6.28-3.3-12.2-7.28-18.27-11C187.17,488.82,192.46,486.82,193.67,482.77Z"/><path class="cls-27" d="M174.85,489.37l-25.48-7c3.24-12.32,11.89-10.49,20.53-8.34,3.58.89,7,2.25,10.57,3.4C183.11,483.5,177.3,485.65,174.85,489.37Z"/><path class="cls-28" d="M232.53,476.82c-.4-1.11-1.4-2.43-1.1-3.29,5.34-15,10.83-29.95,16.29-44.91.89,2.63,1.63,5.31,2.7,7.86,2.82,6.71,2.62,12.3-2.75,18.33C241.8,461.41,237.51,469.42,232.53,476.82Z"/><path class="cls-29" d="M174.85,489.37c0-4.86,5-7.42,5.62-12,4.77.89,9,3.13,13.2,5.38,2.8,6.06-4.74,6.93-5.61,11.15C183.22,493.69,179.18,491.09,174.85,489.37Z"/><path class="cls-30" d="M225.89,452.7c-2.42,5.37-4.93,10.69-9.65,14.53L210.38,469c8.11-5.36,11.73-13.35,14.55-22.26Z"/><path class="cls-31" d="M195.8,533.13c.66,16.34.64,32.65,1.33,49,.13,3.1.82,7.53.79,10.62-.06,5.89-2.81,9.58-8.86,9.66-3.72.05-5.78.12-12.32.5-15.91,4.25-11.92-2.32-13.28-9.47-4.07-17-7.34-35.55-3.94-53.6,5.11,6.67,3.34,13.94,2.11,20.75a44.85,44.85,0,0,1,30.63-.2C190.86,552.09,190.25,541.8,195.8,533.13Z"/><path class="cls-32" d="M193,635.12c2,5.15,2.46,10,4,15.43,2.24,5.84,3.21,12.78-3.14,16.22-6.7,3.62-13.84,1.64-18.42-4.53-5.34-7.19-6.08-16.43-6.63-25.18C175.65,629.83,185.33,632.85,193,635.12Z"/><path class="cls-33" d="M338.33,625.24c-3.74-13.13-10.94-25.62-7.77-41.38,5.31,6.38,8.24,13.1,14.27,17.28,3.6,2.49,7.15,6.1,11.45,5.59,12-1.42,12.94,6.95,14.59,15,.37,1.81.48,3.66.71,5.49-7.44-2.55-15-1.15-22.57-1C345.5,626.3,341.65,627.93,338.33,625.24Z"/><path class="cls-34" d="M189.57,516c-.55,2.28-1.6,7-4.65,9.1-4.59,3.12-13.19,3.14-18.41,3a4.54,4.54,0,0,1-4.43-3.54"/><path class="cls-31" d="M383.09,683.11c3,10.73,1.48,21.39-.8,32-.84,3.9-3.21,5.85-7.87,6-21.32.92-21.31,1.1-23.71-20.23-.38-3.36-.83-6.72-1.25-10.08,11.21-5,22.1-1,32-.51C380.62,688.89,379.91,685.87,383.09,683.11Z"/><path class="cls-4" d="M600.36,479c-17.18-2.88-33.37-8.3-48.74-19.11C562.81,455.63,594,467.73,600.36,479Z"/><path class="cls-35" d="M338.33,625.24c8.43-2.81,17.41-.38,26-2.88,3-.88,5,2.94,7.27,4.87,2.77,5.26,3,11.07,3.6,16.79-8.21.43-16.47.43-24.61,1.45-5.93.74-8.56-1.43-9.25-6.93Q339.82,631.9,338.33,625.24Z"/><path class="cls-32" d="M513.23,584.06c9.36-6,19.48-.2,29.17-1.83,4.22-.71,9-1.69,12.21-5.51,3.22,1.49,7,5.92,7.89,8.75,2.92,4.83,3.22,10.24-.58,14.91-3.57,4.37-9.19,3.4-13.31,1.47C536.66,596.25,525,590,513.23,584.06Z"/><path class="cls-36" d="M383.09,683.11c-.19,3.06-.37,6.13-.46,7.7H349.46c-2.43-7.22-.73-10.43,7.72-9.66,7.32.67,14.8-.15,22.19-.54C381.52,680.5,383.05,680.47,383.09,683.11Z"/><path class="cls-37" d="M590.15,516c5.15,3.87,5.82,11.55,3.88,16.54-2.12,5.48-9.19,5.1-13.56,4.09-14.8-3.43-29.45-7.48-44.13-11.38a3.81,3.81,0,0,1-2.64-3.52c1.89-4.18,5.8-4.44,9.48-4.44C558.65,517.28,574.72,513.86,590.15,516Z"/><path class="cls-38" d="M398.18,670.56c-6.08-4.45-6.32-10.07-2-14.95,5.92-6.75,2.87-9.72-5-11.78l-37,2.85a25.3,25.3,0,0,0-2.83,2.65c.37-.89.71-1.78,1.14-2.65-21.73-.3-24.16,2.39-23.91,26.43,9.89,8.17,16.8,10.4,31.21,8.4h-.06a28.76,28.76,0,0,0,5.81-.91c9.43-.13,18.94.31,28.27-.57C400.41,679.41,407.18,677.14,398.18,670.56ZM354.27,681a10.24,10.24,0,0,1-2-.69A13.24,13.24,0,0,0,354.27,681Zm.07,0a15.83,15.83,0,0,0,2.4.41A15,15,0,0,1,354.34,681Z"/><path class="cls-37" d="M579.63,548.81c4.12,3.38,4.36,9.44,2.25,14.16-2.23,5-7.39,5.31-11.73,4.66a130.62,130.62,0,0,1-34.62-9.73c-4.67-2.12-10.6-2.93-13.34-6.27a7.6,7.6,0,0,1,7-3.66C545.72,547.91,563.38,544.39,579.63,548.81Z"/><path class="cls-39" d="M353.41,647.29l37-2.84c7.84,2.06,10.88,5,5,11.78-4.28,4.87-4,10.49,2.05,14.94,9,6.59,2.22,8.86-4.37,9.48-9.33.88-18.84.44-28.27.56-8.15,2.11-15.33.89-19.62-5.65C340.19,668,344.53,654.38,353.41,647.29Z"/><path class="cls-40" d="M351.72,647.29a53.5,53.5,0,0,0-5,18.11c-1.22,11.44,1.27,17.25,12.29,16.73-14.41,2-21.31-.23-31.2-8.41C327.56,649.68,330,647,351.72,647.29Z"/><path class="cls-41" d="M387.49,659.56c-7.19,5.16-12.08,9.59-17.77,12.36-2.77,1.36-8.82.92-10.22-1-2.12-2.91-2.79-8.3-1.58-11.76.91-2.58,5.91-5.49,8.83-5.24C372.77,654.44,378.62,657,387.49,659.56Z"/><path class="cls-42" d="M376.36,659.91c-3.92,2.43-7.75,4.55-12.08,2.67-.47-.2-.78-2.36-.41-2.66C368,656.64,372.18,658.48,376.36,659.91Z"/><path class="cls-41" d="M413.46,658.84c-5.58,4-9.38,7.45-13.8,9.61-2.16,1-6.85.71-8-.79a11.29,11.29,0,0,1-1.22-9.14c.71-2,4.59-4.27,6.86-4.07C402,654.86,406.57,656.84,413.46,658.84Z"/><path class="cls-42" d="M404.82,659.11c-3.05,1.89-6,3.54-9.39,2.08a2.36,2.36,0,0,1-.32-2.07C398.29,656.57,401.57,658,404.82,659.11Z"/><path class="cls-43" d="M285.24,694.6c-1.21,7.39-4.05,14.23-7.34,20.85-7.93,16-14,18.53-31.16,14.22-4.15-1-4.45-3.4-4.46-6.73,0-10.16,4.3-19.1,7.58-28.35C261.66,693.13,273.45,690.72,285.24,694.6Z"/><path class="cls-44" d="M285.24,694.6c-7.11.19-14.47,1.57-21.26.16-5-1-9.7,6.55-14.12-.17,1.87-7.77,3.52-15.61,5.69-23.3,1.44-5.13,4.07-9.64,10-10.91,2.58,1.7,1.42,4.08,1.23,6-.71,6.83,2.38,9.46,9,9.73,14.18.6,14.18.77,10.63,15C286.05,692.26,285.61,693.42,285.24,694.6Z"/><path class="cls-45" d="M307.58,623.51a4,4,0,0,1,0,.92c-6.72,28.82-7.41,29.16-35.22,20-2.71-.89-2.34-2.15-2-4,.85-4.5,1.43-9.08,3.82-13.13,2.51-5.3,7.13-6.44,12.4-6.3C293.67,621.12,300.91,620,307.58,623.51Z"/><path class="cls-46" d="M307.58,623.51c-6.9,0-13.82.25-20.71-.08-4.82-.24-9,.79-12.68,3.81a28.69,28.69,0,0,1,.21-3.72c1.05-5.77.85-12.31,3.65-17.08s10.1-1.59,15-3.63c2.85-1.18,5.71-2.37,8.45-3.79,2.43-1.26,4.7-2.85,7.86-4.8C311.6,604.54,309.21,614,307.58,623.51Z"/><path class="cls-47" d="M506.91,607l-.18-7.86a2.48,2.48,0,0,1,.32-3.49c4.71-5.46,7.82-.63,11.3,1.76-2.44,4.86.2,16.4,4.79,18.45,6.09,2.72,10.63-.06,13.87-5.42,4.07-.85,10.14-.13,13.31,3.68-4.06,6.22-10.59,10.68-17.53,13.79C519.43,633.92,507.69,624.3,506.91,607Z"/><path class="cls-48" d="M527.82,524.88c-6,11.89-7.92,8.28-13.61,17-1.87,3.44-9.18.68-13.44-1.32-4.1-1.93-5.44-5.35-4-9.52,2.12-6.27,4.17-12.32,8.59-17.57C513.3,509.66,520.75,518.67,527.82,524.88Z"/><path class="cls-49" d="M533.78,604.6c3,.8,5.24,2.22,3.23,5.87.78,8.35-5.73,9.32-11,9.09-3.5-.16-4.32-1.76-9.56-8.11-1.19-1.45-1.43-3.58-2.39-6.38-1.84-5.32.42-6.47,4.3-7.63"/><path class="cls-50" d="M219.34,752.11c-3.93-7.93-.25-13.4,7.09-14.59,19-3.09,37.19.55,54.22,10.15-5.49-.4-11-.94-16.46-1.17-5.86-.23-11.83-.6-16.5,4.11C238.42,754.39,228.78,751.36,219.34,752.11Z"/><path class="cls-51" d="M338.76,738.89c-.05-3.69,2.43-5.94,5.31-6.89,18.45-6.08,36.76-4.71,55,1.32-10.19,2.7-21.62-.46-30.39,7.55-8.61,5-17.74,3.19-26.77,1.89A3.4,3.4,0,0,1,338.76,738.89Z"/><path class="cls-52" d="M338.76,738.89c9.73,4.21,19.95,1,29.89,2-2.17,4.07-.74,8.33-.2,12.49C343.27,755,337.74,752.3,338.76,738.89Z"/><path class="cls-53" d="M254.6,761.67c-3.16-4.12-2.55-7.31,2.27-9.58,8.58-4.05,31.94.41,39.34,7.55-3.16,3.24-7.32,2.9-11.25,2.85C274.84,762.37,264.68,763.24,254.6,761.67Z"/><path class="cls-54" d="M419.17,750.13c-1.44,3.53-4.76,3.57-7.66,3.69-9.52.39-19,.65-28.56.58-3.86,0-8.49,0-8.31-6,1.61-3,4.38-4.2,7.59-4.35a260.17,260.17,0,0,1,28.48.06A9.22,9.22,0,0,1,419.17,750.13Z"/><path class="cls-55" d="M419.17,750.13a13.81,13.81,0,0,0-10.91-3.63c-11.18,1-22.59-1.93-33.62,1.88-1.34-4.39,1.11-6.41,4.83-7.36a64.06,64.06,0,0,1,33-.15C417,742.09,420.42,744.5,419.17,750.13Z"/><path class="cls-56" d="M254.6,761.67c10.2-4.34,20.91-1.08,31.34-2,3.4-.31,6.85,0,10.27,0,2.84,4.09,2.81,8.63-2.72,8.49-12.5-.32-25.11-.89-37.3-4.29C255.51,763.65,255.12,762.42,254.6,761.67Z"/><path class="cls-57" d="M219.34,752.11c9.22-4.85,18.88-1.42,28.35-1.5-2.06,3.39,2.25,9.12-3.46,10.91C236.91,763.82,223.37,758.37,219.34,752.11Z"/><path class="cls-58" d="M301,755.91A14.73,14.73,0,0,1,312.25,761c1.67,1.83,3.54,4.61,1.51,7.51-1.87,2.67-4.84,2.43-7.58,2.23-4.19-.3-1.9-3.62-2.45-5.64C303,762.25,302,759.46,301,755.91Z"/><path class="cls-59" d="M422.86,739c3.09,1.09,6.27,2,9.25,3.32,3.14,1.41,4.68,4.13,3.89,7.53s-4,3.35-6.64,3.86c-5.1,1-3.29-3.3-3.73-5.42C425,745.19,423.37,742.72,422.86,739Z"/><path class="cls-60" d="M307.54,753c6.8-2,11.35.51,15.51,3.58,1.77,1.3,2.19,4.31.42,5.75-2.38,1.94-2.6-1.12-3.46-2.42C317.32,755.88,312.81,754.71,307.54,753Z"/><path class="cls-61" d="M444.59,744.68c-6.28-6.18-6.28-6.18-14.47-9C442.22,734.62,444.61,735.94,444.59,744.68Z"/><path class="cls-62" d="M119.55,174.39c10.28-68.72,45.05-128,117.73-149.54A15.2,15.2,0,0,1,241,24.7c3.92,1.64,4.27,5.22,4.18,8.62-.26,10,1.49,19.83,1.92,29.75,1,22.46,8.89,41.66,25,57.5,5.93,5.82,12.47,11.61,11.2,21.34-5.5,7-12.91,6.93-20.29,4.65-4.71-1.47-9-1.95-13.5,0-6.74,2.9-13,.21-18.94-2.26-8.23-3.41-15.15-3-19.45,3.41,2.55-3.05,7.15-4.21,12.58-2.52,4.76,1.48,9.6,2.64,14.41,3.94,5,1.35,9.73,2,14.23-1.5,2.64-2,5.72-2.91,8.5-.29,3.15,3,.79,5.6-.82,8.26-14.41,24-19.68,50.79-24.12,77.84-1.61,9.79,2,18.25,7.53,26.06-3.75,26.07,9.91,43.26,29.89,56.49,14.26,9.44,28.6,18.67,41,30.48,7.09,6.74,16.08,7,25.06,4.5a75.54,75.54,0,0,1,.34,8c.82,19.14,1.78,22.8-16.9,27.9-10.89,4.39-22.5,7.45-33.48,11.59-9.89,2.93-18-1.26-25.93-6.38-.87-11-.87-11-11.76-15.52a33.31,33.31,0,0,0-6.39-16.11c-3-3.87-4-8.32-1.53-13,1.8-2.65,3.83-.53,5.76-.24,2.73.42,5.07-.12,5.87-3,.54-2-.55-3.65-2.35-4.56-2.79-1.4-4.71,0-6.16,2.29-1,1.56-1.15,3.53-2.52,4.89-4.81,4.4-8.35,1.5-10.46-2.64-4-7.86-10.24-14.09-14.76-21.54-1.9-4.34-5.2-7.36-9-10-6.05-4.13-9-9.75-7.65-17.23,3-10.92,2-12.08-8.71-10-10.26-7-16.09-17.73-23-27.5-3.1-4.36-5.19-8.65-12.28-7.39-5.19.92-7.86-3.37-6.51-8.64,1.67-6.48-1.53-11.19-4.4-16.47-6.37-11.76-15.94-21.21-22.75-32.71C121.23,186.66,120.32,180.75,119.55,174.39Z"/><path class="cls-20" d="M262.56,148.88c-4,.49-7.43-.08-8.37,1.2-4,5.41-8.51,5.3-13.92,3-2-.83-4.23-1.05-6.27-1.8-10.57-3.85-20.9-6.21-30.38,3.32,4.28-4.64,8.19-9.73,13-13.69,1.73-1.42,5.79-.57,8.61.05,9.57,2.09,18.63,9.46,29,2.46a1.17,1.17,0,0,1,.92-.06c17.07,7.09,35-4.41,52,2.37,16.11,6.43,32,13.38,48,20.21,6.86,2.94,13.42,6.65,20.43,9.16,15.39,5.52,21.82,17.57,22.22,32.43.68,25.4-5.61,49.31-19.59,70.85-7,10.77-16.51,16-29.81,15.46-37.66-1.44-71.61-14.17-104-32.42-13.06-7.37-12.85-19.79-10.38-31.22,4.67-21.5,11-42.67,17.39-63.74C253.06,161.11,257.57,156.59,262.56,148.88Z"/><path class="cls-63" d="M242.36,349c-1.14-5.78-5.55-11.87,1.62-16.84,15.06.23,16.43,2.06,11.23,15l-1.83,1.89Z"/><path class="cls-64" d="M196.27,238.77c5.28,4.72,2,8.85-.91,13-6.26-1.14-14-1.05-9.38-11.26"/><path class="cls-62" d="M206.76,281.72c1.64,2.5-.07,5,0,7.49-2.78,5-6.92,6.91-12.39,4.93-3.54-1.28-6-2.82-5.9-7.88.07-4.13,0-7.64,3.86-9.23C198.13,274.62,203.11,276.56,206.76,281.72Z"/><path class="cls-63" d="M196.42,300.49c-.75-3.82-3.67-7.85,1.07-11.14,10,.15,10.87,1.36,7.43,9.92l-1.21,1.25Z"/><path class="cls-63" d="M216.93,272.8c-.37-1.91-1.83-3.92.54-5.57,5,.08,5.44.68,3.72,5l-.61.63Z"/><path class="cls-63" d="M204.39,344.91c-.75-3.77-3.63-7.75,1.06-11,9.84.14,10.74,1.34,7.34,9.8l-1.2,1.24Z"/><path class="cls-63" d="M243.55,315.81c-.52-2.64-2.54-5.43.75-7.71,6.89.1,7.52.94,5.14,6.87l-.84.86Z"/><path class="cls-63" d="M175.94,195.14c-.52-2.65-2.54-5.44.75-7.71,6.89.1,7.52.94,5.14,6.87l-.84.86Z"/><path class="cls-65" d="M330.36,562.62c-2.4-6.41-3.8-13-3.14-19.86.53-5.44,3-7.21,8-4.5a13.29,13.29,0,0,1,2.43,1.35c15.15,13.14,30.31,11,45.69.32,2.9-2,6.48-4.8,10.12-2.28,3.41,2.35,2.93,6.62,2.63,10.32-.55,6.74-2.17,13.15-6.72,18.46-17-1.79-34.16.07-51.19-1.7C335.48,564.44,332.57,564.88,330.36,562.62Z"/><path class="cls-66" d="M256.55,566.59c-4.8-7-5.54-14.92-5.52-23.1,0-6,2.89-9,7.82-5,17.15,13.9,33.61,12.23,51,.33,6.71-4.59,10.07-1.91,10.22,6.48a33.47,33.47,0,0,1-5.56,19.27c-13.9-1-27.91,1.11-41.76-1.07C266.84,562.57,262.13,566.59,256.55,566.59Z"/><path class="cls-48" d="M256.55,566.59c5.26-7.26,13.18-6.85,20.1-5.13,9.47,2.37,18.59-1.4,28,.14,3.63.6,6.81,1,9.83,3-2.77,9.18-9.31,15.42-17.05,20.16C281.44,594.56,264.66,586.93,256.55,566.59Z"/><path class="cls-67" d="M329.52,508.59c-3.41-12.74-.28-17.6,12.18-16.89,14.66.84,29.25,0,43.86-.15,13-.16,16.66,6.08,11.27,18.72-19.82,1.41-39.67,1-59.51.87A11.71,11.71,0,0,1,329.52,508.59Z"/><path class="cls-68" d="M251.16,508.51c-3.24-12.85-.06-17.54,12.45-16.86a373.29,373.29,0,0,0,43-.22c8.16-.5,13.8,1.23,11.7,11.14-.58,2.71,2.63,5.2.21,7.87-20.64,1.62-41.34.37-62,1C254.19,511.49,252.24,510.77,251.16,508.51Z"/><path class="cls-43" d="M330.36,562.62c16.72,0,33.45.19,50.18,0,3.71,0,6.66.75,8.88,3.76-5.42,13.37-17.77,23.08-29.92,22.44C343,588,336.08,575.81,330.36,562.62Z"/><path class="cls-48" d="M329.52,508.59c19.53-.29,39.07-.48,58.6-1,3.39-.09,5.94,1.34,8.71,2.64.22,6.2-4.78,8.74-8.93,10.69-15.19,7.14-31,8.54-46.72,1.74C335.27,520.14,329.56,516.46,329.52,508.59Z"/><path class="cls-48" d="M251.16,508.51c18.93,0,37.87.21,56.79-.32a19.59,19.59,0,0,1,10.54,2.25c-.4,6.27-5.31,9-9.91,11.1-15,6.7-30.58,7.58-45.91,1.19C256.73,520.25,251.15,516.35,251.16,508.51Z"/><path class="cls-32" d="M400.47,466.24c.74,12.52-2.59,16.55-14.87,16.8-13.62.28-27.25.19-40.87,0-12.26-.18-16.55-6.32-13.62-18.91,3.95-2.07,8.22-2.49,12.59-2.5,14.82-.05,29.64-.1,44.46,0C392.75,461.7,397.62,461.37,400.47,466.24Z"/><path class="cls-69" d="M254.88,477.64l10.57-11.45a17.61,17.61,0,0,1,11.77-4.51q16.62-.15,33.23,0c5.85.07,10.12,2.15,11.54,8.29,1.37,8.65-4.23,12.41-11.1,12.71-16,.69-32.06.33-48.09.11C259.46,482.75,256,481.67,254.88,477.64Z"/><path class="cls-67" d="M400.47,466.24c-4-2.42-8.45-1.71-12.77-1.74q-28.29-.22-56.59-.37c.66-6.79,5.14-10.72,10.95-12.53a74.87,74.87,0,0,1,46.68.57C394.92,454.23,400.3,458.44,400.47,466.24Z"/><path class="cls-70" d="M322,470c-2.32-2.24-3.58-5.74-7.85-5.52-16.22.86-32.56-1.73-48.69,1.74q3-8.43,6.11-16.86c12.29-1.34,24.54-1.42,36.52,2.06C318.13,454.31,322.08,459.81,322,470Z"/><path class="cls-71" d="M347.66,415.43c-.83,5.49-1.58,11-2.51,16.46-.53,3.09-1.52,5.71-5,7.15-7.21,3-11.34,8.95-13.37,15.79-11.24-9.4-11.82-21.09-6.72-33.83,4.4-6.18,11.15-5.7,17.49-5.9C340.91,415,344.28,415.61,347.66,415.43Z"/><path class="cls-65" d="M347.66,415.43c-1.7,3.08-4.36,2.23-7.1,2A42.6,42.6,0,0,0,320.08,421c0-2.18-.08-4.36.07-6.53,1.23-18.36,1.56-18.28,18.59-24.56,6.85-2.54,8.63.88,9,5.94C348.25,402.34,347.74,408.9,347.66,415.43Z"/><path class="cls-72" d="M555.71,433.48c10.4-28.51,20.87-57,31.19-85.54q34.17-94.49,68.21-189c2.41-6.69,6.22-11.44,13.25-14.41,21.1-8.92,41.91-18.56,62.78-28,5.81-2.64,9.38-1.13,11.5,4.88,4.3,12.21,9.69,24,14,36.21,3.31,9.33,8.28,18.5,12.44,27.78,2.29,5.11,1.71,9.36-.61,14.15-20.65,42.63-41.54,85.15-61.6,128.06-22,47.16-46.26,93.28-67,141-5.88,2.74-9.26-.71-12.32-5-.24-8.86,4.75-16,8.28-23.46Q690.23,325.25,743.6,209.83c2.89-6.25,2.86-11.64.33-17.83-6-14.72-12.95-29-18.83-43.76-8.61-.89-14.74,5-21.91,8-7,2.76-13.45,7-20.57,8.89-14,3.79-16.73,15.43-20.42,26.68-.71,2.18-.73,3.3,2.39,3.15,5.83-.27,4.55,3.51,3.31,6.94a4.39,4.39,0,0,1-1.57,2.29c-17.56,10.3-19.7,29.54-25.86,46-9.25,24.78-18.89,49.42-27.9,74.3-12.62,34.87-26.31,69.35-38.81,104.27-1.46,4.08-2.53,8.45-6.69,10.9C561.9,440.14,556.91,440.27,555.71,433.48Z"/><path class="cls-2" d="M145.72,474C74.48,473.79,9.67,533.6,1,607.6S43,741.76,114.22,742Z"/><path class="cls-16" d="M143.56,492.36c-61.48-.19-117.41,51.43-124.92,115.29s36.25,115.79,97.74,116Z"/><path class="cls-2" d="M145.72,474c71.24.21,122,60.38,113.25,134.38S185.46,742.2,114.22,742Z"/><path class="cls-16" d="M143.56,492.36c61.49.19,105.24,52.11,97.74,116s-63.44,115.48-124.92,115.3Z"/><path class="cls-72" d="M23.81,611.34c7.5-63.86,63.43-115.48,124.92-115.29a98.34,98.34,0,0,1,54.88,16.35c-16.33-12.58-36.93-20-60.05-20-61.48-.19-117.41,51.43-124.92,115.29C13.67,650,31.21,687,61.5,707.28,34.4,686.39,19.12,651.19,23.81,611.34Z"/><path class="cls-73" d="M170.92,600.48a1.58,1.58,0,0,0,1.55,1.84,2.09,2.09,0,0,0,2-1.83l11.61-98.79c-1.11-.52-2.24-1-3.36-1.47Z"/><path class="cls-73" d="M152.79,574.26,154,564.15a1.58,1.58,0,0,0-1.55-1.84,2.09,2.09,0,0,0-2,1.83l-1.18,10.11a1.57,1.57,0,0,0,1.55,1.84A2.08,2.08,0,0,0,152.79,574.26Z"/><path class="cls-73" d="M60.87,600.59a2.08,2.08,0,0,0,2-1.83l9.68-82.35c-1.31,1-2.61,1.94-3.88,3l-9.33,79.39A1.57,1.57,0,0,0,60.87,600.59Z"/><path class="cls-73" d="M139.58,686.68a2.08,2.08,0,0,0,2-1.83L146,647.21a1.57,1.57,0,0,0-1.55-1.84,2.08,2.08,0,0,0-2,1.83L138,684.84A1.58,1.58,0,0,0,139.58,686.68Z"/><path class="cls-73" d="M186.31,612.45a1.58,1.58,0,0,0-1.55-1.84,2.08,2.08,0,0,0-2,1.83l-11.43,97.25c1.28-.68,2.53-1.38,3.78-2.1Z"/><path class="cls-73" d="M197.68,590.93a1.57,1.57,0,0,0,1.55,1.84,2.08,2.08,0,0,0,2-1.83l8.61-73.27c-1-1-2.11-1.91-3.2-2.82Z"/><path class="cls-73" d="M200.17,614.79l1.14-9.64a1.58,1.58,0,0,0-1.55-1.84,2.09,2.09,0,0,0-2,1.83l-1.13,9.64a1.58,1.58,0,0,0,1.55,1.84A2.07,2.07,0,0,0,200.17,614.79Z"/><path class="cls-73" d="M199.63,657a2.06,2.06,0,0,0-2,1.83l-1.46,12.39a1.58,1.58,0,0,0,1.55,1.84,2.07,2.07,0,0,0,2-1.83l1.46-12.39A1.57,1.57,0,0,0,199.63,657Z"/><path class="cls-73" d="M139.21,712.37a2.07,2.07,0,0,0,2-1.83l1.62-13.76a1.57,1.57,0,0,0-1.55-1.84,2.07,2.07,0,0,0-2,1.83l-1.61,13.76A1.57,1.57,0,0,0,139.21,712.37Z"/><path class="cls-73" d="M212,634.13a2.09,2.09,0,0,0,2-1.83L218.88,591a1.58,1.58,0,0,0-1.55-1.85,2.08,2.08,0,0,0-2,1.83l-4.86,41.33A1.58,1.58,0,0,0,212,634.13Z"/><path class="cls-73" d="M210.43,647.87l-1.3,11a1.58,1.58,0,0,0,1.55,1.84,2.08,2.08,0,0,0,2-1.83l1.29-11a1.57,1.57,0,0,0-1.55-1.84A2.07,2.07,0,0,0,210.43,647.87Z"/><path class="cls-73" d="M226.24,618.58a2.09,2.09,0,0,0,2-1.83l7.15-60.81c-.85-2.27-1.76-4.51-2.75-6.7l-7.94,67.5A1.58,1.58,0,0,0,226.24,618.58Z"/><path class="cls-73" d="M152,554.51a2.07,2.07,0,0,0,2-1.83l6.92-58.83c-1.15-.19-2.32-.35-3.48-.51l-7,59.33A1.57,1.57,0,0,0,152,554.51Z"/><path class="cls-73" d="M170.43,661.06a2.08,2.08,0,0,0,2-1.83l.81-6.88a1.58,1.58,0,0,0-1.55-1.85,2.08,2.08,0,0,0-2,1.83l-.81,6.89A1.58,1.58,0,0,0,170.43,661.06Z"/><path class="cls-73" d="M211.48,669a1.57,1.57,0,0,0-1.55-1.84,2.06,2.06,0,0,0-2,1.83l-1.62,13.78c1.39-1.5,2.74-3,4.07-4.57Z"/><path class="cls-73" d="M173.12,634.44l1.45-12.39a1.58,1.58,0,0,0-1.55-1.84,2.08,2.08,0,0,0-2,1.83l-1.46,12.39a1.57,1.57,0,0,0,1.55,1.84A2.07,2.07,0,0,0,173.12,634.44Z"/><path class="cls-73" d="M48.75,590.91a2.09,2.09,0,0,0-2,1.83l-.91,7.8a1.57,1.57,0,0,0,1.55,1.84,2.07,2.07,0,0,0,2-1.83l.92-7.8A1.58,1.58,0,0,0,48.75,590.91Z"/><path class="cls-73" d="M81.18,675.93a1.58,1.58,0,0,0-1.55-1.84,2.09,2.09,0,0,0-2,1.83l-4.47,38c1.11.53,2.23,1,3.36,1.52Z"/><path class="cls-73" d="M97.49,665a2.07,2.07,0,0,0-2,1.83l-.65,5.52a1.57,1.57,0,0,0,1.55,1.84,2.06,2.06,0,0,0,2-1.83l.65-5.52A1.57,1.57,0,0,0,97.49,665Z"/><path class="cls-73" d="M109.13,562.18a2.08,2.08,0,0,0-2,1.83L96.36,655.79a1.58,1.58,0,0,0,1.55,1.84,2.09,2.09,0,0,0,2-1.83L110.68,564A1.57,1.57,0,0,0,109.13,562.18Z"/><path class="cls-73" d="M126.59,545.25a2.07,2.07,0,0,0-2,1.83l-1.13,9.64a1.58,1.58,0,0,0,1.55,1.84,2.08,2.08,0,0,0,2-1.83l1.13-9.64A1.57,1.57,0,0,0,126.59,545.25Z"/><path class="cls-73" d="M79.83,668.58a2.05,2.05,0,0,0,2-1.83L83,656.66a1.57,1.57,0,0,0-1.55-1.84,2.07,2.07,0,0,0-2,1.83l-1.19,10.09A1.57,1.57,0,0,0,79.83,668.58Z"/><path class="cls-73" d="M45.42,626.71l.92-7.8a1.57,1.57,0,0,0-1.55-1.84,2.07,2.07,0,0,0-2,1.83l-.91,7.8a1.58,1.58,0,0,0,1.55,1.84A2.08,2.08,0,0,0,45.42,626.71Z"/><path class="cls-73" d="M36.54,649.63a2.08,2.08,0,0,0-2,1.83l-2.81,23.89c1,1.65,1.93,3.26,3,4.83l3.37-28.71A1.57,1.57,0,0,0,36.54,649.63Z"/><path class="cls-73" d="M108.33,531.42a1.57,1.57,0,0,0,1.55,1.84,2.06,2.06,0,0,0,2-1.83l4.2-35.69c-1.23.31-2.44.65-3.65,1Z"/><path class="cls-73" d="M92,504.57c-1.26.62-2.52,1.24-3.76,1.9l-7.62,64.82a1.58,1.58,0,0,0,1.55,1.84,2.09,2.09,0,0,0,2-1.83Z"/><path class="cls-73" d="M81.68,577.7a2.09,2.09,0,0,0-2,1.83L78.94,586a1.57,1.57,0,0,0,1.55,1.84,2.07,2.07,0,0,0,2-1.83l.76-6.44A1.58,1.58,0,0,0,81.68,577.7Z"/><path class="cls-73" d="M85.14,631,86.54,619A1.57,1.57,0,0,0,85,617.19,2.07,2.07,0,0,0,83,619L81.6,631a1.58,1.58,0,0,0,1.55,1.84A2.09,2.09,0,0,0,85.14,631Z"/><path class="cls-73" d="M59,647a2.09,2.09,0,0,0,2-1.83l.5-4.29A1.58,1.58,0,0,0,59.89,639a2.06,2.06,0,0,0-2,1.83l-.51,4.29A1.58,1.58,0,0,0,59,647Z"/><path class="cls-73" d="M59.52,653.37A1.57,1.57,0,0,0,58,651.53a2.07,2.07,0,0,0-2,1.83L50.65,698.8c1.05,1,2.12,1.88,3.21,2.78Z"/><path class="cls-73" d="M62.48,605.64a1.58,1.58,0,0,0-1.55-1.84,2.08,2.08,0,0,0-2,1.83L58.08,613a1.59,1.59,0,0,0,1.56,1.84,2.08,2.08,0,0,0,2-1.83Z"/><path class="cls-73" d="M69.52,692.42A1.58,1.58,0,0,0,68,690.58a2.09,2.09,0,0,0-2,1.83L64,708.92c1.09.68,2.19,1.32,3.31,2Z"/><path class="cls-74" d="M133.28,579.85c-15-.05-28.58,12.52-30.41,28.06s8.83,28.18,23.79,28.23Z"/><path class="cls-62" d="M133.28,579.85c15,0,25.61,12.68,23.79,28.23s-15.44,28.1-30.41,28.06Z"/><path class="cls-32" d="M103.43,555.15a14.39,14.39,0,0,1-5.08-5.5,35,35,0,0,1-3.57-9.49,60.79,60.79,0,0,1-1.67-12.8l7.36.46c.08,1.31.24,2.71.46,4.22s.53,3.42.91,5.72L102,539c1.55,6.57,3.41,9.59,5.56,9.09s2.4-4,.89-10.4q-.41-1.64-1.6-4.91c-.81-2.17-1.67-4.23-2.58-6.15l6.21-4a51.78,51.78,0,0,1,5,13.41,32.29,32.29,0,0,1,1,9.65,14.57,14.57,0,0,1-2.08,7,7.79,7.79,0,0,1-4.87,3.43A8,8,0,0,1,103.43,555.15Z"/><path class="cls-32" d="M143.71,522.86l-2.09,31.69-6.36-.38L126,536.09l-.92,17.42-6.38-.09,1.7-32.08,6.34.71L136.2,540l1.13-17.2Z"/><path class="cls-32" d="M162.92,531.43a17,17,0,0,1,3.37,7.79,17.58,17.58,0,0,1-.87,9q-2.47,6.93-7.71,8.9t-12.05-.45a40.23,40.23,0,0,1-5.24-2.31l10.29-28a13.25,13.25,0,0,1,3.07-.17,10.59,10.59,0,0,1,2.8.61A13.93,13.93,0,0,1,162.92,531.43Zm-3.78,13.16a7,7,0,0,0,.35-3.76,6.61,6.61,0,0,0-1.48-3.09,6.26,6.26,0,0,0-2.6-1.83,5.51,5.51,0,0,0-1.36-.31l-4.69,13.14Q156.65,551.56,159.14,544.59Z"/><path class="cls-32" d="M179.63,564l-4.46,6.92-14.84-9,16.23-26.74L191.51,544l-4.07,7.17L178,545.26l-1.65,2.81,7.89,4.79L180.08,560l-7.84-4.76-2,3.38Z"/><path class="cls-32" d="M191.19,577.72l-5.83-6-6.13,3.1-2.21-7,27.15-11.68,4.55,4.73-15.35,26-6-3.29Zm4.61-7,4.17-6.33-6.91,3.5Z"/><path class="cls-32" d="M223.12,583.18a16.91,16.91,0,0,1-2.05,8.23,17.79,17.79,0,0,1-6.15,6.6q-6.19,4-11.54,2.37c-3.58-1.07-6.67-3.64-9.29-7.68a40.19,40.19,0,0,1-2.75-5l25.19-16a13.82,13.82,0,0,1,2.55,1.74,10.82,10.82,0,0,1,1.85,2.19A13.92,13.92,0,0,1,223.12,583.18Zm-11,8.15a7,7,0,0,0,2.57-2.77,6.67,6.67,0,0,0,.7-3.35,6.2,6.2,0,0,0-1-3,5,5,0,0,0-.89-1.07l-11.71,7.57Q205.9,595.35,212.12,591.33Z"/><path class="cls-32" d="M140.7,668.24a15.71,15.71,0,0,1,4.46,5.62l-4.76,8.62a10.3,10.3,0,0,0-2.53-3.36,4.73,4.73,0,0,0-3-1.25,3,3,0,0,0-2.24.85,2.82,2.82,0,0,0-.89,2,1.87,1.87,0,0,0,.79,1.71,3.77,3.77,0,0,0,2.12.56,7.08,7.08,0,0,1,4.65,1.9,12.71,12.71,0,0,1,3.35,5.07,19.31,19.31,0,0,1,1.17,7.22,19.56,19.56,0,0,1-1.46,7.38,12.92,12.92,0,0,1-3.68,5.11,7.52,7.52,0,0,1-5,1.8,9.13,9.13,0,0,1-5.25-1.88,15.87,15.87,0,0,1-4.45-5.21l4-8.92q3.16,4.11,6,4.15a3.34,3.34,0,0,0,2.2-.73,2.28,2.28,0,0,0,1-1.8,1.81,1.81,0,0,0-1.07-1.7,5.8,5.8,0,0,0-2.6-.6,8.54,8.54,0,0,1-4.88-1.54,9.7,9.7,0,0,1-3.32-4.4,17.64,17.64,0,0,1-1.12-7,21.58,21.58,0,0,1,1.58-8,14.66,14.66,0,0,1,4-5.72,7.88,7.88,0,0,1,5.31-2A9.26,9.26,0,0,1,140.7,668.24Z"/><path class="cls-32" d="M75.69,687l26.19-32,7.4,3.75-7.43,20.78,11.83-17.25,7.68,3.89-11.81,39.44-8.68.22,7.73-24.39L94.11,701.27l-5.64-2.85,8.92-24.84L79.85,696.49Z"/><path class="cls-32" d="M82.41,650l5.84,6.45,8.37-4.7L97.71,660,61.16,678.31l-4.55-5.12,25.27-34.14,6.71,3.14ZM75,659.27l-6.67,8.36,9.41-5.29Z"/><path class="cls-32" d="M41.19,646.36a14.92,14.92,0,0,1,3.23-6.58,22.08,22.08,0,0,1,6.76-5.51,24.13,24.13,0,0,1,8-2.76,15,15,0,0,1,7.15.49,7.82,7.82,0,0,1,4.53,3.64,8,8,0,0,1,.73,2l10.28-5.81,3.28,6L49.65,658q-5.79-2.16-7.66-5.58A8.71,8.71,0,0,1,41.19,646.36Zm20.72-5.17a3.25,3.25,0,0,0-1.73-1.46,5.77,5.77,0,0,0-2.74-.36,7.44,7.44,0,0,0-3,.92,8.69,8.69,0,0,0-3.62,3.37,3.49,3.49,0,0,0-.29,3.45,2.93,2.93,0,0,0,1.72,1.32l9.94-5.58A2.76,2.76,0,0,0,61.91,641.19Z"/></g></g></g></svg>